<svg width="24" height="25" viewBox="0 0 24 25" fill="none" xmlns="http://www.w3.org/2000/svg">
<g clip-path="url(#clip0_1_117)">
<path d="M4.23926 9.32422C4.59893 13.2899 7.94223 16.4071 11.9999 16.4071C16.0577 16.4071 19.401 13.2899 19.7606 9.32422H4.23926Z" fill="#0D3353"/>
<path d="M17.3703 23.6593L16.0718 16.8811C15.642 17.0938 15.1936 17.2744 14.7293 17.4187L15.0942 19.3236H8.90626L9.27099 17.4185C8.80665 17.2742 8.35824 17.0935 7.92845 16.8809L6.63072 23.6594C6.55698 24.0444 6.80936 24.4163 7.19443 24.49C7.23953 24.4987 7.28439 24.5029 7.32868 24.5029C7.66243 24.5029 7.95999 24.2663 8.0251 23.9263L8.63448 20.7433H15.3662L15.976 23.9264C16.0411 24.2664 16.3385 24.5029 16.6723 24.5029C16.7166 24.5029 16.7616 24.4987 16.8067 24.49C17.1917 24.4163 17.444 24.0444 17.3703 23.6593Z" fill="#0D3353"/>
<path d="M9.27487 4.16561C9.44137 3.99442 9.84388 3.52497 9.98591 2.86455C10.1032 2.31916 10.0732 1.50166 9.26432 0.704322C8.98518 0.42912 8.5357 0.432308 8.2605 0.711541C7.9853 0.99068 7.98853 1.44016 8.26772 1.71537C8.64722 2.08947 8.63793 2.38 8.59795 2.5661C8.52979 2.88288 8.30208 3.12948 8.25712 3.1757C8.09062 3.34694 7.68811 3.81634 7.54613 4.47676C7.42884 5.02215 7.45884 5.83969 8.26767 6.63699C8.406 6.7733 8.586 6.84127 8.766 6.84127C8.94937 6.84127 9.13265 6.77067 9.27149 6.62977C9.54674 6.35058 9.54346 5.90115 9.26432 5.6259C8.88478 5.25179 8.8941 4.96126 8.93409 4.77517C9.00224 4.45848 9.22992 4.21187 9.27487 4.16561Z" fill="#0D3353"/>
<path d="M12.508 4.16561C12.6745 3.99442 13.077 3.52497 13.219 2.86455C13.3363 2.31916 13.3063 1.50166 12.4974 0.704322C12.2183 0.42912 11.7689 0.432308 11.4936 0.711541C11.2184 0.99068 11.2216 1.44016 11.5008 1.71537C11.8804 2.08947 11.8711 2.38 11.8311 2.5661C11.7629 2.88288 11.5352 3.12948 11.4903 3.1757C11.3238 3.34694 10.9213 3.81634 10.7793 4.47676C10.662 5.02215 10.692 5.83969 11.5008 6.63699C11.6392 6.7733 11.8192 6.84127 11.9992 6.84127C12.1825 6.84127 12.3658 6.77067 12.5046 6.62977C12.7798 6.35058 12.7766 5.90115 12.4974 5.6259C12.1179 5.25179 12.1272 4.96126 12.1672 4.77517C12.2354 4.45848 12.463 4.21187 12.508 4.16561Z" fill="#0D3353"/>
<path d="M15.7424 4.16561C15.9089 3.99442 16.3114 3.52497 16.4534 2.86455C16.5707 2.31916 16.5407 1.50166 15.7319 0.704322C15.4528 0.42912 15.0032 0.432308 14.728 0.711541C14.4528 0.99068 14.4561 1.44016 14.7352 1.71537C15.1147 2.08947 15.1055 2.38 15.0655 2.5661C14.9973 2.88288 14.7696 3.12948 14.7247 3.1757C14.5582 3.34694 14.1556 3.81634 14.0137 4.47676C13.8964 5.02215 13.9264 5.83969 14.7352 6.63699C14.8735 6.7733 15.0535 6.84127 15.2335 6.84127C15.4169 6.84127 15.6002 6.77067 15.739 6.62977C16.0143 6.35058 16.011 5.90115 15.7318 5.6259C15.3523 5.25179 15.3616 4.96126 15.4016 4.77517C15.4698 4.45848 15.6974 4.21187 15.7424 4.16561Z" fill="#0D3353"/>
</g>
<defs>
<clipPath id="clip0_1_117">
<rect width="24" height="24" fill="white" transform="translate(0 0.5)"/>
</clipPath>
</defs>
</svg>
