<svg width="24" height="25" viewBox="0 0 24 25" fill="none" xmlns="http://www.w3.org/2000/svg">
<path d="M1.59131 17.3412C2.3302 17.7692 3.17081 17.9948 4.02685 17.9948C4.88288 17.9948 5.72349 17.7692 6.46238 17.3412C6.92701 17.0836 7.45061 16.9483 7.98311 16.9483C8.51561 16.9483 9.03921 17.0836 9.50383 17.3412C10.2491 17.7632 11.0927 17.9851 11.9513 17.9851C12.8098 17.9851 13.6534 17.7632 14.3987 17.3412C14.8633 17.0836 15.3869 16.9483 15.9194 16.9483C16.4519 16.9483 16.9755 17.0836 17.4401 17.3412C18.193 17.7673 19.0441 17.9942 19.9113 18C20.7481 17.9914 21.5678 17.7641 22.2874 17.3412" stroke="#0D3353" stroke-width="2.25" stroke-linecap="round"/>
<path d="M1.59131 12.3412C2.3302 12.7692 3.17081 12.9948 4.02685 12.9948C4.88288 12.9948 5.72349 12.7692 6.46238 12.3412C6.92701 12.0836 7.45061 11.9483 7.98311 11.9483C8.51561 11.9483 9.03921 12.0836 9.50383 12.3412C10.2491 12.7632 11.0927 12.9852 11.9513 12.9852C12.8098 12.9852 13.6534 12.7632 14.3987 12.3412C14.8633 12.0836 15.3869 11.9483 15.9194 11.9483C16.4519 11.9483 16.9755 12.0836 17.4401 12.3412C18.193 12.7673 19.0441 12.9942 19.9113 13C20.7481 12.9914 21.5678 12.7641 22.2874 12.3412" stroke="#0D3353" stroke-width="2.25" stroke-linecap="round"/>
<path d="M6 7.5L9.02802 6.36449C9.61282 6.14519 10.2723 6.31119 10.6836 6.78122L13.0783 9.518C13.3212 9.79561 13.3261 10.2086 13.09 10.492L11.1325 12.8409" stroke="#0D3353" stroke-width="2.25" stroke-linecap="round"/>
<ellipse cx="15.5" cy="7" rx="1.5" ry="1.5" fill="#0D3353"/>
</svg>
