<svg width="24" height="25" viewBox="0 0 24 25" fill="none" xmlns="http://www.w3.org/2000/svg">
<path fill-rule="evenodd" clip-rule="evenodd" d="M12 5.375C10.1935 5.375 8.41391 5.81696 6.79574 6.66325L6.79545 6.6634C5.51219 7.33415 4.30376 8.24445 3.18874 9.40506C2.75828 9.85311 2.77255 10.5653 3.2206 10.9957C3.66865 11.4262 4.38081 11.4119 4.81127 10.9639C5.76919 9.96679 6.78445 9.20793 7.83795 8.65731L7.83824 8.65716C9.13993 7.97634 10.5624 7.625 12 7.625C13.4376 7.625 14.8601 7.97634 16.1618 8.65716L16.1618 8.65717C17.2735 9.23861 18.2939 10.0142 19.1812 10.9559C19.6073 11.4082 20.3193 11.4293 20.7715 11.0033C21.2237 10.5772 21.2449 9.86519 20.8188 9.41298C19.7639 8.29335 18.5436 7.36374 17.2046 6.6634C15.5863 5.81701 13.8067 5.375 12 5.375ZM8.82097 14.284C9.8392 13.2361 10.9589 12.7777 12.0094 12.7777C13.06 12.7777 14.1796 13.2361 15.1979 14.284C15.6309 14.7296 16.3431 14.7398 16.7887 14.3068C17.2343 13.8738 17.2445 13.1616 16.8115 12.716C15.4364 11.3008 13.7574 10.5277 12.0094 10.5277C10.2614 10.5277 8.58247 11.3008 7.20731 12.716C6.77432 13.1616 6.78454 13.8738 7.23014 14.3068C7.67574 14.7398 8.38798 14.7296 8.82097 14.284ZM12 16C11.1716 16 10.5 16.6716 10.5 17.5C10.5 18.3284 11.1716 19 12 19H12.01C12.8384 19 13.51 18.3284 13.51 17.5C13.51 16.6716 12.8384 16 12.01 16H12Z" fill="#0D3353"/>
</svg>
